<svg width="24" height="30" viewBox="0 0 24 30" fill="none" xmlns="http://www.w3.org/2000/svg">
<path d="M2.08368 13.1663H21.9167C22.1464 13.1663 22.3337 13.3535 22.3337 13.5833V27.7502C22.3335 28.0518 22.0279 28.2451 21.7634 28.1379L21.7116 28.1125L21.7106 28.1116L13.1989 23.2463H13.1979C12.5018 22.8481 11.6558 22.823 10.9411 23.1721L10.8015 23.2463L2.28973 28.1116L2.28876 28.1125C2.014 28.2701 1.66692 28.0718 1.66669 27.7502V13.5833L1.67548 13.4993C1.71447 13.3097 1.88274 13.1663 2.08368 13.1663ZM2.08368 7.50024H21.9167C22.1477 7.50025 22.3335 7.68528 22.3337 7.91626C22.3337 8.14739 22.1478 8.33325 21.9167 8.33325H2.08368C1.85255 8.33325 1.66669 8.14739 1.66669 7.91626C1.66686 7.68528 1.85266 7.50024 2.08368 7.50024ZM2.08368 1.83325H21.9167C22.1478 1.83325 22.3337 2.01911 22.3337 2.25024C22.3335 2.48122 22.1477 2.66626 21.9167 2.66626H2.08368C1.85266 2.66626 1.66686 2.48122 1.66669 2.25024C1.66669 2.01911 1.85255 1.83325 2.08368 1.83325Z" stroke-linecap="round" stroke-linejoin="round" stroke="black" stroke-width="1.5"/>
</svg>
